Patient4_TMGait_0pt3_01_right_03_EMG.mot
version=1
nRows=13
nColumns=33
inDegrees=no
endheader
time	1LAddLong	2LGlutMax	3LGlutMed	4LIliopsoas	5LSemiMemb	6LBicFemLong	7LRecFem	8LVastMed	9LVastLat	10LGasMed	11LTibAnt	12lTibPost	13LPeroneusLong	14LSol	15LExtDigLong	16LFlexDigLong	17RAddLong	18RGlutMax	19RGlutMed	20RIliopsoas	21RSemiMemb	22RBicFemLong	23RRecFem	24RVastMed	25RVastLat	26RGasMed	27RTibAnt	28RTibPost	29RPeroneusLong	30RSol	31RExtDigLong	32RFlexDigLong
4.64	0	-0.11017	0.017242	-0.003204	-0.001068	0.023041	0.0354	0.006104	0.027466	0.014801	0.024261	-0.000763	-0.021362	0.005646	0.059052	0.00351	-0.033112	0.18768	0.10071	0.058136	0.021362	-0.20477	0.07431	-0.040131	0.037689	0.007019	-0.13458	-0.016174	-0.71899	-0.24551	0.008698	-0.001526
4.641	0.007629	-0.10986	0.018463	0.004425	0.009766	-0.019989	0.033417	0.009918	0.037689	0.021057	0.067596	0.009003	-0.011902	0.011139	0.083313	0.014191	-0.033875	0.17044	0.070496	0.063019	-0.25269	-0.28244	0.016174	-0.057373	0.13428	-0.010376	-0.015106	-0.017548	0.94833	-0.03067	-0.002289	-0.007324
4.642	0.001678	-0.099792	0.018158	-0.002289	-0.009003	-0.019531	0.04303	0.00061	0.037384	0.019989	-0.007019	0.009003	-0.010834	0.069885	0.0737	-0.001984	0.005188	0.12283	-0.072479	0.041962	-0.026855	-0.32471	-0.080109	-0.009613	0.14801	-0.014343	0.11658	-0.02182	-0.12619	0.18234	0.002747	-0.007477
4.643	0.004883	-0.11307	0.015259	-0.005798	0.00351	-0.003967	0.026855	0.002747	0.032043	0.02594	-0.030365	0.010071	-0.021362	0.04837	0.073547	0.012054	0.052185	0.097198	0.26306	-0.000916	0.14267	-0.22064	-0.18951	-0.10117	0.10849	-0.020447	0.039215	-0.015869	-0.2623	0.31097	-0.004883	-0.012817
4.644	0.001526	-0.10056	0.01297	0.002594	0.024567	-0.013123	0.028839	0.006104	0.023651	0.031891	-0.023804	0.01236	-0.007935	0.014954	0.046234	-0.002136	0.11078	0.049438	0.42374	0.009308	-0.054016	-0.22934	-0.061798	-0.13473	0.046539	-0.007629	-0.19608	-0.014648	1.3632	0.090179	-0.003662	-0.013885
4.645	-0.002441	-0.076904	0.015106	0.002747	0.018768	-0.002747	0.033417	0.010529	0.036316	0.028687	-0.016022	0.014343	-0.019379	-0.071564	0.032349	-0.005493	0.09552	0.099487	0.56732	-0.009613	-0.36285	-0.23407	0.050354	-0.072479	-0.017853	-0.01358	-0.20157	-0.000763	0.64148	-0.077667	-0.003357	-0.019379
4.646	-0.00061	-0.076294	0.00824	0.010834	0.01236	0.044098	0.016327	0.00946	0.044403	0.05127	-0.001221	0.016174	-0.022583	-0.12497	0.043182	-0.012207	0.048981	0.058441	0.21393	0.017395	-0.6778	0.084839	0.031586	-0.035553	-0.012207	-0.012054	-0.060272	-0.012665	-0.37033	0.048523	-0.002289	-0.014343
4.647	0.00473	-0.10162	-0.001068	0.01236	0.009766	0.027924	0.034027	0.007629	0.038452	0.055847	-0.001984	0.016937	-0.040741	-0.045013	0.032806	0.004425	-0.061798	0.010529	0.000305	-0.013885	-0.12817	0.20783	-0.025177	0.078583	-0.005341	-0.007935	-0.072327	-0.007629	0.20569	0.024567	0.001831	-0.018768
4.648	0.000458	-0.085907	0.007629	0.00946	0.008545	0.008698	0.042114	0.007324	0.043488	0.090485	-0.009308	0.014343	-0.058594	0.039368	0.02533	-0.001984	-0.074921	-0.017395	-0.054321	-0.054779	0.72571	-0.22369	0.023193	0.18845	0.026855	-0.002899	0.047913	-0.00946	0.45258	-0.040283	0.002594	-0.012817
4.649	0.004272	-0.10361	0.011597	0.002747	0.010529	0.010376	0.029449	0.009918	0.05188	0.089722	-0.014343	0.024109	-0.064545	0.11398	0.058136	0.002899	-0.050659	-0.054474	-0.016632	-0.036926	0.36072	-0.31647	0.067902	0.24475	0.035095	0.00351	0.20218	-0.009918	-0.76828	0.01236	-0.00061	-0.018311
4.65	0.002899	-0.10925	-0.035553	0.00061	0.005646	-0.000458	0.030823	0.007782	0.047455	-0.052185	-0.022583	0.019836	-0.066223	0.081482	0.059814	-0.003967	-0.048828	-0.029449	0.066528	-0.05722	0.015869	-0.20966	0.083313	0.14496	0.034027	0.001678	0.16205	-0.01297	-0.85861	0.045013	-0.001984	-0.00061
4.651	-0.001373	-0.097656	-0.021515	-0.00061	-0.000153	0.005798	0.026855	0.008087	0.050201	-0.13886	-0.001068	0.02533	-0.065918	0.000916	-0.030975	-0.002899	-0.059204	0.005951	0.11536	0.033569	-0.014191	-0.12253	0.10117	-0.013123	0.023804	-0.011444	0.082397	-0.00946	-0.19608	0.047302	-0.00061	-0.010529
4.652	-0.001068	-0.14206	0.005341	-0.014648	0.010681	0.005341	0.013428	0.00885	0.050964	-0.08667	-0.000916	0.013275	-0.066681	0.001678	-0.035248	-0.000763	-0.033417	-0.02533	-0.11841	0.090637	-0.012512	-0.040436	0.029449	-0.096283	-0.002441	-0.029144	0.033722	-0.010681	-0.49637	-0.008392	0.003357	-0.007782
